<?xml version="1.0" encoding="UTF-8" standalone="no"?>
<!-- Created with Inkscape (http://www.inkscape.org/) -->

<svg
   width="5.5654879mm"
   height="5.6082978mm"
   viewBox="0 0 5.5654879 5.6082979"
   version="1.1"
   id="svg5"
   xml:space="preserve"
   sodipodi:docname="menu bar logo.svg"
   inkscape:version="1.2.1 (9c6d41e, 2022-07-14)"
   xmlns:inkscape="http://www.inkscape.org/namespaces/inkscape"
   xmlns:sodipodi="http://sodipodi.sourceforge.net/DTD/sodipodi-0.dtd"
   xmlns="http://www.w3.org/2000/svg"
   xmlns:svg="http://www.w3.org/2000/svg"><sodipodi:namedview
     id="namedview7"
     pagecolor="#ffffff"
     bordercolor="#000000"
     borderopacity="0.25"
     inkscape:showpageshadow="false"
     inkscape:pageopacity="1"
     inkscape:pagecheckerboard="false"
     inkscape:deskcolor="#d1d1d1"
     inkscape:document-units="px"
     showgrid="false"
     inkscape:zoom="9.4416134"
     inkscape:cx="-1.6416686"
     inkscape:cy="12.074208"
     inkscape:window-width="1156"
     inkscape:window-height="784"
     inkscape:window-x="171"
     inkscape:window-y="38"
     inkscape:window-maximized="0"
     inkscape:current-layer="layer2"
     showborder="false"
     borderlayer="false" /><defs
     id="defs2" /><g
     inkscape:groupmode="layer"
     id="layer2"
     inkscape:label="Layer 2"
     transform="matrix(3.8543252,0,0,3.2030156,-289.96994,-302.85315)"
     style="stroke-width:0.112954;stroke-dasharray:none"><path
       style="mix-blend-mode:normal;fill:#000000;fill-opacity:0;stroke:#000000;stroke-width:0.112954;stroke-linecap:butt;stroke-linejoin:round;stroke-dasharray:none;stroke-opacity:0.207254;paint-order:normal"
       d="m 75.382685,95.172532 0.08165,-0.02578 0.103137,0.05157 0.02149,0.103138 0.05248,0.04644 0.112062,0.02996 0.04438,-0.0078 -0.04216,-0.03994 -0.0011,-0.18751 0.366455,-0.464032 0.237166,-0.0025 0.09217,0.09265 -0.0017,0.184136 0.117257,0.05646 v 0.02432 l -0.07817,0.04256 0.0139,0.124205 0.06775,0.01737 0.05038,0.05993 -0.0017,0.115519 -0.0165,0.05298 -0.05819,0.04603 -0.06775,0.0043 -0.02779,0.0096 -0.0747,0.08251 -0.04603,0.01476 -0.125073,0.0043 -0.01737,0.02953 0.02606,0.126811 0.138971,0.07209 0.145051,-0.05211 0.03735,0.0026 0.06688,0.03735 v 0.11552 l -0.09554,0.155473 -0.09728,0.131154 -0.04169,-8.69e-4 -0.140708,-0.133759 -0.01216,8.68e-4 -0.07296,0.154605 h -0.08425 l -0.119862,-0.09902 -0.05559,-0.09467 -0.07817,-0.02258 -0.01911,8.68e-4 -0.159816,-0.130285 -0.0096,-0.0747 -8.68e-4,-0.05559 0.06427,-0.185005 -0.09207,-0.05993 -0.118994,-8.68e-4 -0.05559,-0.01129 -0.07296,-0.147656 0.0026,-0.116388 z"
       id="path958-7"
       inkscape:label="path958" /><path
       style="opacity:1;mix-blend-mode:normal;fill:#000000;fill-opacity:0;stroke:#ffffff;stroke-width:0.112954;stroke-linecap:butt;stroke-linejoin:round;stroke-dasharray:none;stroke-opacity:1;paint-order:normal"
       d="m 75.33542,95.105436 0.08165,-0.02578 0.103137,0.05157 0.02149,0.103138 0.05248,0.04644 0.112062,0.02996 0.04438,-0.0078 -0.04216,-0.03994 -0.0011,-0.18751 0.366455,-0.464032 0.237166,-0.0025 0.09217,0.09265 -0.0017,0.184136 0.117257,0.05646 v 0.02432 l -0.07817,0.04256 0.0139,0.124205 0.06775,0.01737 0.05038,0.05993 -0.0017,0.115519 -0.0165,0.05298 -0.05819,0.04603 -0.06775,0.0043 -0.02779,0.0096 -0.0747,0.08251 -0.04603,0.01476 -0.125073,0.0043 -0.01737,0.02953 0.02606,0.126811 0.138971,0.07209 0.145051,-0.05211 0.03735,0.0026 0.06688,0.03735 v 0.11552 l -0.09554,0.155473 -0.09728,0.131154 -0.04169,-8.69e-4 -0.140708,-0.133759 -0.01216,8.68e-4 -0.07296,0.154605 h -0.08425 l -0.119862,-0.09902 -0.05559,-0.09467 -0.07817,-0.02258 -0.01911,8.68e-4 -0.159816,-0.130285 -0.0096,-0.0747 -8.68e-4,-0.05559 0.06427,-0.185005 -0.09207,-0.05993 -0.118994,-8.68e-4 -0.05559,-0.01129 -0.07296,-0.147656 0.0026,-0.116388 z"
       id="path958"
       inkscape:label="path958"
       transform="translate(-1.0929681e-6)" /></g></svg>
